<svg id="Layer_1" data-name="Layer 1" xmlns="http://www.w3.org/2000/svg" width="256" height="256" viewBox="0 0 256 256"><title>bikini</title><path d="M90.1,87.9a3.1,3.1,0,0,1-3-2.9C85.9,53.8,98.7,39.7,99.3,39.1a3,3,0,0,1,4.4,4.1c-.2.2-11.7,13.2-10.6,41.6a3,3,0,0,1-2.9,3.1Z" fill="#707070"/><path d="M168,91.3a36.4,36.4,0,0,1,7.4,13.6c1.5,5.1,1.5,9.8.1,12s-12,6.8-22.8,6.8c-1.7,0-10.3-.2-10.7-4.1-.5-6.2,9.8-17.5,26-28.3m.3-6.4a4.8,4.8,0,0,0-2.6.7c-8.2,5.4-30.9,21.5-29.7,34.6.7,6.9,8.1,9.5,16.7,9.5,11.2,0,24.6-4.4,27.9-9.5,5.2-8.1-.6-25.7-9.3-34.1a4.2,4.2,0,0,0-3-1.2Z" fill="#707070"/><path d="M168.1,87.9H168a3,3,0,0,1-2.9-3.1c1.1-28.7-10.5-41.4-10.6-41.6a3,3,0,0,1,4.4-4.1c.6.6,13.4,14.7,12.2,45.9A3,3,0,0,1,168.1,87.9Z" fill="#707070"/><path d="M90.2,91.3c16.2,10.8,26.6,22.1,26,28.3-.4,3.9-8.9,4.1-10.7,4.1-10.8,0-21.3-4.4-22.8-6.8s-1.4-6.9.1-12a36.4,36.4,0,0,1,7.4-13.6M90,84.9a4.3,4.3,0,0,0-3.1,1.2c-8.7,8.4-14.5,26-9.3,34.1,3.3,5.1,16.7,9.5,27.9,9.5,8.7,0,16-2.6,16.7-9.5,1.2-13.1-21.5-29.2-29.7-34.6a4.7,4.7,0,0,0-2.5-.7Z" fill="#707070"/><rect x="117.2" y="114.5" width="20.8" height="6.03" fill="#707070"/><path d="M136,217.8H122.2a2.9,2.9,0,0,1-2.9-2.3,60.6,60.6,0,0,0-8.5-18.6c-8.3-12.1-19.5-18.5-33.3-19a3.1,3.1,0,0,1-2.8-2.3l-4.2-17.8a3.1,3.1,0,0,1,.6-2.6,2.8,2.8,0,0,1,2.3-1.1H182.6a3,3,0,0,1,2.2,1,3.2,3.2,0,0,1,.8,2.4L183.1,175a3,3,0,0,1-2.9,2.6c-1.6.1-37.7,1.7-41.2,37.5A3,3,0,0,1,136,217.8Zm-11.5-6h8.8c4.8-32.9,35.1-38.9,44.1-40l1.7-11.7H77.2L80.1,172C110.7,174.5,121.9,203.3,124.5,211.8Z" fill="#707070"/></svg>