<svg id="Layer_1" data-name="Layer 1" xmlns="http://www.w3.org/2000/svg" width="256" height="256" viewBox="0 0 256 256"><title>cloud</title><path d="M193.9,124.7a45.1,45.1,0,0,0,2.6-15,43.3,43.3,0,0,0-82.4-18.5,33.6,33.6,0,0,0-20.4-6.8,34.3,34.3,0,0,0-34.2,34.3,33.9,33.9,0,0,0,.6,6.4,34.5,34.5,0,0,0-25.9,33.3C34.2,169,39,183,62,189.3h.6a18.3,18.3,0,0,0,3.3.2H189.1a32.5,32.5,0,0,0,32.7-31.9v-.2A34.4,34.4,0,0,0,193.9,124.7Zm-4.8,57.7H63.6c-14.9-4.2-22.2-12-22.2-23.9A27.1,27.1,0,0,1,65,131.6a3.7,3.7,0,0,0,3.1-3.6,5,5,0,0,0-.2-1.2,27.9,27.9,0,0,1-1.2-8.1,27.1,27.1,0,0,1,46.3-19,3.6,3.6,0,0,0,3.4,1,3.7,3.7,0,0,0,2.6-2.4,36.1,36.1,0,1,1,66.4,27.8,3.4,3.4,0,0,0,.1,3.4,3.7,3.7,0,0,0,2.9,1.9h1.8a27.1,27.1,0,0,1,24.4,26.2A25.4,25.4,0,0,1,189.1,182.4Z" fill="#2de1fc"/></svg>