<svg id="Layer_1" data-name="Layer 1" xmlns="http://www.w3.org/2000/svg" width="256" height="256" viewBox="0 0 256 256"><title>cloud-sun</title><path d="M179.5,158a42.8,42.8,0,0,0,2.7-15v-.6a47.1,47.1,0,0,0-1-8.5,43.4,43.4,0,0,0-42.3-34.2,39.7,39.7,0,0,0-7.8.7,46.3,46.3,0,0,0-8.3,2.3,43.1,43.1,0,0,0-22.1,20,7,7,0,0,0-.9,1.7L98,123.2a33.8,33.8,0,0,0-18.6-5.5A34.4,34.4,0,0,0,45.1,152a33.9,33.9,0,0,0,.6,6.4,34.4,34.4,0,0,0-25.9,33.3c0,10.6,4.9,24.6,27.8,30.9h.7l3.2.2H174.7A32.5,32.5,0,0,0,207.4,191v-.2A34.4,34.4,0,0,0,179.5,158Zm-4.8,57.7H49.2c-14.9-4.2-22.1-12-22.1-23.9a27.2,27.2,0,0,1,23.5-26.9,3.5,3.5,0,0,0,3.1-3.5,4.9,4.9,0,0,0-.1-1.2,25.4,25.4,0,0,1-1.3-8.1,27.1,27.1,0,0,1,27.1-27,25.6,25.6,0,0,1,6.2.7,26.1,26.1,0,0,1,10.6,5.1l2.5,2.2a3.5,3.5,0,0,0,5.9-1.4l.9-2.4a36,36,0,0,1,4.5-7.9,35.1,35.1,0,0,1,11.9-10.1,31.2,31.2,0,0,1,7.3-3,39.1,39.1,0,0,1,9.7-1.3,36.2,36.2,0,0,1,35.8,31.7,31.5,31.5,0,0,1,.3,4.4c0,1.1-.1,2.4-.2,3.5a33.8,33.8,0,0,1-3.8,12.9,3.7,3.7,0,0,0,.1,3.4,3.7,3.7,0,0,0,2.9,1.9h1.9a27.1,27.1,0,0,1,24.3,26.2A25.3,25.3,0,0,1,174.7,215.7Z" fill="#2de1fc"/><path d="M117.6,83.5a4,4,0,0,1-2.3-.8l-18.5-15a3.5,3.5,0,0,1-.6-5,3.7,3.7,0,0,1,5.1-.6l18.5,15a3.5,3.5,0,0,1,.6,5A3.7,3.7,0,0,1,117.6,83.5Z" fill="#ffc33c"/><path d="M155.5,62.5a3.7,3.7,0,0,1-3.6-3.3l-2.3-22.1a3.6,3.6,0,0,1,7.1-.8l2.4,22.2a3.6,3.6,0,0,1-3.2,3.9Z" fill="#ffc33c"/><path d="M193.6,75.1a3,3,0,0,1-2.2-.8,3.6,3.6,0,0,1-.6-5.1l14.9-18.4a3.5,3.5,0,0,1,5-.5,3.6,3.6,0,0,1,.6,5.1L196.5,73.8A3.7,3.7,0,0,1,193.6,75.1Z" fill="#ffc33c"/><path d="M219.8,160.5a4,4,0,0,1-2.3-.8l-18.5-15a3.4,3.4,0,0,1-.5-5,3.5,3.5,0,0,1,5-.6l18.6,15a3.6,3.6,0,0,1-2.3,6.4Z" fill="#ffc33c"/><path d="M212.2,114.4a3.6,3.6,0,0,1-.4-7.2l20.4-2.2a3.5,3.5,0,0,1,3.9,3.2,3.6,3.6,0,0,1-3.2,4l-20.3,2.2Z" fill="#ffc33c"/><path d="M198,107.2a38.3,38.3,0,0,0-42-33.9,38.4,38.4,0,0,0-33.2,29.4,46.3,46.3,0,0,1,8.3-2.3,30.9,30.9,0,0,1,25.6-19.9l3.4-.2a31.1,31.1,0,0,1,27.1,16.1,29.6,29.6,0,0,1,3.6,11.6,30.5,30.5,0,0,1-9.6,25.9,47.1,47.1,0,0,1,1,8.5,39.7,39.7,0,0,0,7.6-7.2,37.9,37.9,0,0,0,8.4-23.9A28.2,28.2,0,0,0,198,107.2Z" fill="#ffc33c"/></svg>