<svg id="Layer_1" data-name="Layer 1" xmlns="http://www.w3.org/2000/svg" width="256" height="256" viewBox="0 0 256 256"><title>flip-flops</title><path d="M198.6,85.9c-2.2-14.9-11.1-28-22-32.6-5.6-2.3-14.5-3.6-24.7,3.9-17.7,13-8,50.8-2.9,66.5a38.1,38.1,0,0,1,1.9,12,9.7,9.7,0,0,1-.1,1.7c-.5,11.8-3.4,21.6-5.8,29.4a87.4,87.4,0,0,0-3.3,13.2,20.8,20.8,0,0,0,5.1,16.7c4.4,5,11.2,7.8,19.1,7.8,15,0,17.7-9.1,20.3-17.9l.9-3.1c1.6-4.9,1.2-11.7.8-19l-.3-6.1c0-2.6-.1-5.2.1-7.7a23.1,23.1,0,0,1-5.7,4.8c0,2.1.1,4.3.2,6.4v2.9c.4,6.7.8,13.1-.5,17-.3,1.1-.7,2.2-1,3.3-2.5,8.6-4.1,13.8-14.9,13.8-6.3,0-11.6-2.1-15-5.9a15.4,15.4,0,0,1-3.6-12.3,77.3,77.3,0,0,1,3-12.3c1.3-4.1,2.6-8.6,3.8-13.7a104.1,104.1,0,0,0,2.3-17.1,47.2,47.2,0,0,0-2.1-15.7c-3.7-11.3-14.3-49,.9-60.2,4.2-3.1,8.4-4.6,12.6-4.6a15.7,15.7,0,0,1,6.6,1.4c9.1,3.8,16.8,15.3,18.7,28.2s.4,24-1.9,33.9c-.7,2.8-1.5,5.5-2.3,7.9s.9,1.9,1.3,2.9a24.2,24.2,0,0,1,1.6,5.5,88.6,88.6,0,0,0,3.1-8.8C198.3,116.7,200.9,101.4,198.6,85.9Z" fill="#707070"/><path d="M159,165.4h-.7c-.7-.2-15.8-4.5-21.5-16.2-2.9-5.9-2.9-12.6.1-19.8,4.5-10.8,10.2-18.7,15.3-25.6,6.2-8.5,11.1-15.2,10.9-23.7a2.7,2.7,0,0,1,2.7-2.9,2.8,2.8,0,0,1,2.8,2.7c.3,10.5-5.3,18.2-11.9,27.2-4.9,6.7-10.4,14.2-14.6,24.4q-3.6,8.5-.3,15.3c4.6,9.4,17.8,13.2,18,13.2a2.8,2.8,0,0,1,1.9,3.5A2.7,2.7,0,0,1,159,165.4Z" fill="#707070"/><path d="M195.5,149.1a26.7,26.7,0,0,1-7.9,9.3,37.8,37.8,0,0,1-5.4,3.5,44.9,44.9,0,0,1-8.2,3.4h-.8a2.7,2.7,0,0,1-2.6-2,2.7,2.7,0,0,1,1.9-3.5,36.9,36.9,0,0,0,9.5-4.4,23.1,23.1,0,0,0,5.7-4.8,14.9,14.9,0,0,0,2.8-4.1,15.2,15.2,0,0,0,1.3-9.7,24.2,24.2,0,0,0-1.6-5.5c-.4-1-.8-1.9-1.3-2.9-4-8.7-8.9-15.5-13.3-21.5-6.6-9-12.2-16.7-12-27.2a2.9,2.9,0,0,1,2.9-2.7,2.7,2.7,0,0,1,2.7,2.9c-.2,8.5,4.7,15.2,10.9,23.7a145.8,145.8,0,0,1,11.1,16.9c1.3,2.3,2.5,4.8,3.7,7.5a6.1,6.1,0,0,0,.5,1.2C198.4,136.5,198.4,143.2,195.5,149.1Z" fill="#707070"/><path d="M114.3,180a87.4,87.4,0,0,0-3.3-13.2c-2.6-8.4-5.8-19-5.9-32h0a30.7,30.7,0,0,1,1.5-9.8c5.3-15.9,15.5-54.5-2.5-67.7C93.9,49.7,85,51,79.4,53.3c-11,4.6-19.8,17.7-22,32.6s.3,30.9,3.7,42.3a86.2,86.2,0,0,0,3.1,8.7,24.2,24.2,0,0,1,1.6-5.5c.4-1,.8-1.9,1.3-2.9s-1.6-5.1-2.3-7.9c-2.3-9.9-3.7-21.9-1.9-33.9s9.6-24.4,18.6-28.2a16.6,16.6,0,0,1,6.8-1.4c4.1,0,8.3,1.5,12.5,4.6,15.5,11.4,4.3,50,.5,61.5a35.8,35.8,0,0,0-1.8,11.1v.5c.2,13.9,3.5,24.8,6.1,33.6a69,69,0,0,1,3.1,12.3A15.1,15.1,0,0,1,105,193c-3.3,3.8-8.6,5.9-14.9,5.9-10.8,0-12.4-5.2-14.9-13.8-.3-1.1-.7-2.2-1-3.3-1.3-3.9-.9-10.3-.6-17,.1-.9.1-1.9.2-2.9s.2-4.3.2-6.4a25,25,0,0,1-5.7-4.7,64.2,64.2,0,0,1,0,7.6c0,2-.1,4.1-.3,6.1-.3,7.3-.7,14.1.9,19l.9,3.2c2.6,8.7,5.3,17.8,20.3,17.8,7.9,0,14.7-2.8,19.1-7.8A21.2,21.2,0,0,0,114.3,180Z" fill="#707070"/><path d="M97,165.4a2.7,2.7,0,0,1-2.7-2,2.8,2.8,0,0,1,1.9-3.5c.1,0,13.4-3.8,18-13.3,2.2-4.4,2.1-9.5-.3-15.2-4.2-10.2-9.7-17.7-14.6-24.4-6.6-9-12.2-16.7-12-27.2a3,3,0,0,1,2.9-2.7A2.7,2.7,0,0,1,92.9,80c-.2,8.5,4.7,15.2,10.9,23.7,5.1,6.9,10.8,14.8,15.3,25.6,3,7.2,3,13.9.1,19.8-5.7,11.7-20.9,16-21.5,16.2Z" fill="#707070"/><path d="M85.4,163.4a2.7,2.7,0,0,1-2.6,2H82a44.9,44.9,0,0,1-8.2-3.4,42,42,0,0,1-5.5-3.5,26.4,26.4,0,0,1-7.8-9.3c-2.9-5.9-2.9-12.6.1-19.8a11.7,11.7,0,0,1,.5-1.1c1.2-2.7,2.4-5.3,3.7-7.6a145.8,145.8,0,0,1,11.1-16.9C82.1,95.2,87,88.5,86.8,80a2.7,2.7,0,0,1,2.7-2.9,3,3,0,0,1,2.9,2.7C92.6,90.3,87,98,80.4,107c-4.4,6-9.3,12.8-13.3,21.5-.5,1-.9,1.9-1.3,2.9a24.2,24.2,0,0,0-1.6,5.5,15.9,15.9,0,0,0,1.3,9.7,17.1,17.1,0,0,0,2.8,4.2,25,25,0,0,0,5.7,4.7,35.4,35.4,0,0,0,9.5,4.4A2.7,2.7,0,0,1,85.4,163.4Z" fill="#707070"/></svg>