<svg id="Layer_1" data-name="Layer 1" xmlns="http://www.w3.org/2000/svg" width="256" height="256" viewBox="0 0 256 256"><title>glasses</title><path d="M220.1,95.5A14.4,14.4,0,0,0,194,91.1l-26.2,42.2a28.6,28.6,0,0,0-55.2,6.7H92.5a28.7,28.7,0,0,0-12.8-20.8h-.2a28.1,28.1,0,0,0-15.4-4.5H62.7L75.3,94.3a8.4,8.4,0,0,1,5.2-3.6,8.2,8.2,0,0,1,9.9,6.1,8.6,8.6,0,0,1-1,6.3,2.9,2.9,0,0,0,.9,4.1,3.1,3.1,0,0,0,4.2-.9,14.7,14.7,0,0,0,1.8-10.8,14.3,14.3,0,0,0-6.4-8.9,13.7,13.7,0,0,0-10.8-1.8,14,14,0,0,0-8.9,6.3l-15.5,25a28.6,28.6,0,0,0-19.1,27,20.6,20.6,0,0,0,.2,3.5,28.7,28.7,0,0,0,.5,3.1.1.1,0,0,0,.1.1,28.5,28.5,0,0,0,56.1-3.7h20.1a28.5,28.5,0,0,0,56.9-3V142l29.6-47.7a8.4,8.4,0,0,1,11.4-2.6,8,8,0,0,1,3.7,5.1,8.6,8.6,0,0,1-1,6.3,2.9,2.9,0,0,0,.9,4.1,3.1,3.1,0,0,0,4.2-.9A14.7,14.7,0,0,0,220.1,95.5Zm-156,70.1a22.6,22.6,0,0,1-22-17.8,24.2,24.2,0,0,1-.5-4.7,23.4,23.4,0,0,1,1.7-8.8h0a24.9,24.9,0,0,1,3.7-5.8,22.1,22.1,0,0,1,11.6-7.2,19.7,19.7,0,0,1,5.5-.7,21.2,21.2,0,0,1,8.7,1.8L53.2,140.9a2.9,2.9,0,0,0-.1,4.2,2.8,2.8,0,0,0,2.2,1,3.4,3.4,0,0,0,2.1-.8l20.8-19.7a21,21,0,0,1,4.5,4.9L69.1,142.9a3,3,0,0,0-.2,4.2,2.9,2.9,0,0,0,2.3,1,3.2,3.2,0,0,0,2-.8l12.3-11.1a21.7,21.7,0,0,1,1.1,6.9A22.5,22.5,0,0,1,64.1,165.6Zm98-14.9a22.5,22.5,0,1,1-21.2-30.1,24.4,24.4,0,0,1,7.7,1.3l-20.1,19a3,3,0,0,0-.1,4.2,2.8,2.8,0,0,0,2.2,1,3.4,3.4,0,0,0,2.1-.8l21.5-20.4a21.8,21.8,0,0,1,4.8,4.8l-.6.4-14,12.8a3,3,0,0,0-.2,4.2,3,3,0,0,0,2.3,1,3.2,3.2,0,0,0,2-.8l13.4-12.2a19.5,19.5,0,0,1,1.4,5.4,21.1,21.1,0,0,1,.2,2.6A21.8,21.8,0,0,1,162.1,150.7Z" fill="#707070"/></svg>