<svg id="Layer_1" data-name="Layer 1" xmlns="http://www.w3.org/2000/svg" width="256" height="256" viewBox="0 0 256 256"><title>hat</title><path d="M171.2,184.9l-5,.5v3.1c0,2.4.1,4.7,0,7.1a2.3,2.3,0,0,1-2.5,2.6c-1.6,0-2.5-1-2.5-2.7V186l-5,.4v11.7c-.1,2-1.5,3.1-3.4,2.5a2.3,2.3,0,0,1-1.6-2.4V186.7l-5,.5v1.3c0,4.1,0,8.1-.1,12.2,0,2-1.6,3-3.5,2.3a2.4,2.4,0,0,1-1.4-2.6V187.5h-.8a7,7,0,0,1-6.9-6.2c-.3-1.9-.3-3.8-.5-5.6s-.5-1-.8-1l-4.1-.4v11.2c0,1.8-.8,2.7-2.4,2.8a2.4,2.4,0,0,1-2.6-2.7V174.7c0-1.1-.3-1.4-1.3-1.4l-3.7-.4v9.5c0,2-.9,3-2.6,3s-2.4-1-2.4-2.9V172.4l-4.9-.5a6.2,6.2,0,0,0-.1,1.3v7c0,2-.9,2.9-2.6,2.9s-2.4-1-2.4-2.9-.1-5.6-.1-8.4c0-.1,0-.2.1.1a33.4,33.4,0,0,1-4.6-2,7.2,7.2,0,0,1-3-6.8c.4-3.3.7-6.5,1.1-9.8.9-7.9,1.7-15.7,2.6-23.6s1.7-15.7,2.5-23.5c.5-4.1.9-8.1,1.3-12.2l-7.2-1.3c-7.2-1.3-14.3-3-20.9-6.5a7.8,7.8,0,0,1-4.5-7.6c.1-6,0-12.1.1-18.1A7.6,7.6,0,0,1,76.3,53a8.2,8.2,0,0,1,4.4.3A84,84,0,0,0,110,59.1c11.2.3,22.4.4,33.7.2a92.8,92.8,0,0,0,25.6-3.8l6.4-2.3a7.1,7.1,0,0,1,9,3.5,7.6,7.6,0,0,1,.8,3.3c.1,6.1,0,12.3.1,18.4A7.9,7.9,0,0,1,181,86l-6.6,2.9c-.7.3-.9.6-.8,1.3.5,6.7,1.1,13.5,1.6,20.2l1.8,22.8c.7,8.8,1.5,17.5,2.1,26.2.5,5.9,1,11.7,1.4,17.6a7.2,7.2,0,0,1-3.4,6.7,1.6,1.6,0,0,0-.8,1.6v7.6a2.6,2.6,0,1,1-5.1.1v-8.1ZM166.7,61.6c-12.4,2.8-25,3-37.5,3v1c.4,5.6.9,11.2,1.3,16.9.8,9.8,1.5,19.7,2.3,29.5,1,12,1.9,23.9,2.8,35.8s1.7,21.3,2.5,31.9a2.7,2.7,0,0,0,3.2,2.7l6.7-.6,25.3-2.1c1.9-.2,2.6-1.1,2.4-3s-.2-3.3-.4-4.9l-1.8-23c-.6-8.9-1.4-17.8-2-26.7l-1.8-23.2L167.6,72C167.3,68.6,167,65.2,166.7,61.6Zm-34.1,108q-3-37.2-6-74l-18.5-1-.9,7.5c-1.1,10.1-2.1,20.2-3.2,30.3s-2.3,20.1-3.3,30.2c-.3,2.6.6,3.6,3.2,3.9l16.7,1.8Zm-6.5-79.4c-.6-8.2-1.3-16.4-1.9-24.6,0-1-.6-1-1.3-1L106.6,64a84.7,84.7,0,0,1-27.2-5.7c-2.4-1-3.9.1-3.9,2.7V78.9a2.8,2.8,0,0,0,1.8,2.9,65.5,65.5,0,0,0,21.6,6.3c6.8.9,13.6,1.5,20.4,2.1C121.5,90.4,123.8,90.2,126.1,90.2Zm47.4-5.7,4.9-2.2a3.7,3.7,0,0,0,2.4-3.8c-.1-5.7,0-11.5-.1-17.2a5.7,5.7,0,0,0,0-1.3c-.3-1.8-1.7-2.5-3.4-1.7l-2.2.9-3.6,1.2C172.2,68.4,172.8,76.3,173.5,84.5Z" fill="#707070"/></svg>