<?xml version="1.0" encoding="utf-8"?>
<!-- Generator: Adobe Illustrator 22.0.1, SVG Export Plug-In . SVG Version: 6.00 Build 0)  -->
<svg version="1.1" id="Layer_1" xmlns="http://www.w3.org/2000/svg" xmlns:xlink="http://www.w3.org/1999/xlink" x="0px" y="0px"
	 viewBox="0 0 256 256" style="enable-background:new 0 0 256 256;" xml:space="preserve">
<style type="text/css">
	.st0{fill:#F10000;}
</style>
<path class="st0" d="M127.8,175.5c-3.2,0-5.4-1.9-6.2-2.6c-6.4-5.5-12.7-10.3-18.9-14.9c-18.4-13.9-34.3-25.9-35.1-47
	C67.1,98.1,71.2,87.4,79,80.7c1.4-1.2,9.1-7.3,19.5-7.2c12.2,0.2,23.4,8.3,29.8,20.9c7.7-12.8,20.6-20.4,33.1-18.7
	c11,1.5,18.2,9.9,19.5,11.6c5,6.3,7.3,14.3,6.9,23.6c-1.1,25.8-26.1,42.5-42.6,53.6c-4.8,3.2-8.9,5.9-11,8c-1.9,1.8-3.9,2.8-6,2.9
	l0,0C128,175.5,127.9,175.5,127.8,175.5z M98.1,80.6c-7.8,0-13.6,4.6-14.6,5.5c-8.3,7.1-9.1,18.5-8.9,24.6
	c0.7,17.8,14.6,28.4,32.3,41.7c6.2,4.7,12.7,9.6,19.2,15.2c0.3,0.2,1.1,1,1.7,0.9l0,0c0.6,0,1.2-0.7,1.4-0.9c2.6-2.6,6.8-5.3,12-8.8
	c15.4-10.3,38.6-25.8,39.5-48.1c0.3-7.6-1.5-14-5.4-19c-0.6-0.8-6.4-7.8-14.9-9c-11.5-1.6-23.8,7.5-29.2,21.6
	c-0.5,1.4-1.9,2.3-3.4,2.2c-1.5,0-2.8-1-3.2-2.5c-4.2-13.7-15-23.4-26.2-23.5C98.3,80.6,98.2,80.6,98.1,80.6z"/>
</svg>
