<svg id="Layer_1" data-name="Layer 1" xmlns="http://www.w3.org/2000/svg" width="256" height="256" viewBox="0 0 256 256"><title>location</title><path d="M128,199.9a12.3,12.3,0,0,1-9.2-4.1L80.4,152.4A59.7,59.7,0,0,1,68.1,116,60,60,0,0,1,131,56.1c30,1.5,54.9,26.1,56.8,55.9a59.1,59.1,0,0,1-1.4,17.4,57.7,57.7,0,0,1-10.7,22.8l-38.5,43.6A12.3,12.3,0,0,1,128,199.9ZM128,63a53.1,53.1,0,0,0-53,53,59.4,59.4,0,0,0,1.3,11.9A51.8,51.8,0,0,0,85.8,148L124,191.2a5.5,5.5,0,0,0,8,0l38.4-43.4a52.1,52.1,0,0,0,9.3-19.9,56.6,56.6,0,0,0,1.2-15.4c-1.7-26.4-23.7-48.1-50.2-49.4Z" fill="#707070"/><path d="M128,138.9a3.5,3.5,0,0,1-3.5-3.5V91a3.5,3.5,0,0,1,7,0v44.4A3.5,3.5,0,0,1,128,138.9Z" fill="#707070"/><path d="M150.2,116.7H105.8a3.5,3.5,0,0,1,0-7h44.4a3.5,3.5,0,0,1,0,7Z" fill="#707070"/></svg>