<svg id="Layer_1" data-name="Layer 1" xmlns="http://www.w3.org/2000/svg" width="256" height="256" viewBox="0 0 256 256"><title>mittens</title><path d="M210,104.2l.2.3c.6.9.8,1,2.1,1.8A20,20,0,0,1,210,104.2Zm4.1,2.9h-.4l.5.3.3.2Zm0,0h-.4l.5.3.3.2Zm-4.1-2.9.2.3c.6.9.8,1,2.1,1.8A20,20,0,0,1,210,104.2Z"/><path d="M181.5,69.3a23.7,23.7,0,0,0-14.7,5.2A78.9,78.9,0,0,0,57.9,142.2l-.7.9-.4.5a29.1,29.1,0,0,0-5.9,17.8c0,9.5,4.5,18.3,11.6,22.9A19,19,0,0,0,73,187.5h99c6,0,11.6-2.8,15.8-7.9a29.5,29.5,0,0,0-.7-37.3h0c.1-1.2.1-2.4.1-3.6,0-8.1-3.5-16-8-22.4h2.3a23.5,23.5,0,0,0,19.8-10.8,23.1,23.1,0,0,0,3.8-12.7A23.6,23.6,0,0,0,181.5,69.3Zm5.9,92.1a22.2,22.2,0,0,1-4.7,13.9,13.7,13.7,0,0,1-10.7,5.5H73a12.4,12.4,0,0,1-6.9-2.1c-5.1-3.3-8.5-10.1-8.5-17.3a22.4,22.4,0,0,1,4.5-13.8l.3-.3c2.9-3.5,6.6-5.5,10.6-5.5h99a13.2,13.2,0,0,1,8.6,3.4l1,1C185.3,149.8,187.4,155.4,187.4,161.4Zm-6.3-24.3-2.3-.7h-.1a19.3,19.3,0,0,0-6.7-1.2H73a19,19,0,0,0-8.5,2,72.9,72.9,0,0,1,97.9-58l-.3.4a17.4,17.4,0,0,0-1.1,1.8.4.4,0,0,0-.1.3,8.3,8.3,0,0,0-.7,1.3c-.2.3-.3.7-.5,1l-.6,1.7v.2a5.7,5.7,0,0,0-.4,1.4c0,.1-.1.2-.1.4l-.3,1.5c-.1.5-.1.9-.2,1.3v.2c0,.3-.1.5-.1.8v1.4a16.2,16.2,0,0,0,.1,2.2h0a12.2,12.2,0,0,0,.3,1.7,2.2,2.2,0,0,0,.1.8,12.1,12.1,0,0,0,.5,1.8,14.2,14.2,0,0,0,.7,2.2l.9,1.8a.4.4,0,0,0,.1.3,17.4,17.4,0,0,0,1.1,1.8h0a10.9,10.9,0,0,0,1.3,1.7l.2.3a13.4,13.4,0,0,1,1.1,1.4,11.2,11.2,0,0,0,3.1,2.8C174,117.9,180.5,127.8,181.1,137.1Zm15.1-34.7a16.9,16.9,0,0,1-20.9,6.7l-1.7-.6h-.4l-.5-.3h-.1l-1.2-.8h-.1a7.8,7.8,0,0,1-2.1-1.8l-.2-.3h-.1l-1.1-1.3a10.7,10.7,0,0,1-1.6-2.5l-.5-1a.1.1,0,0,1-.1-.1,4.2,4.2,0,0,1-.4-1c-.2-.4-.3-.8-.5-1.3a7.6,7.6,0,0,1-.3-1.6,4.5,4.5,0,0,1-.3-1.6c0-.6-.1-1.1-.1-1.7a17.6,17.6,0,0,1,5.5-12.7,17.2,17.2,0,0,1,12-4.8A17.5,17.5,0,0,1,199,92.9,17,17,0,0,1,196.2,102.4Z" fill="#707070"/><path d="M213.7,107.1h-.2l-1.2-.8Z"/><path d="M216.2,108.2h0l-1.6-.6h-.1Z"/></svg>