<svg id="Layer_1" data-name="Layer 1" xmlns="http://www.w3.org/2000/svg" width="256" height="256" viewBox="0 0 256 256"><title>scarf</title><line x1="149.5" y1="152.1" x2="201.5" y2="124.2" fill="none"/><line x1="106.5" y1="126.3" x2="54.5" y2="98.4" fill="none"/><path d="M172.1,132.7l-1.2-.2c-16.7-7.1-42.2-23.5-59.9-41a194,194,0,0,1-23.9,16.2,3,3,0,0,1-2.9-5.3,177,177,0,0,0,22.6-15.3C97.4,77,91,66.8,90.7,57.9a17.7,17.7,0,0,1,8.8-16.8c7.6-4.5,18.7-4.4,26.4.2a17.9,17.9,0,0,1,9,16.6c-.5,10.3-9.3,20.9-19.2,29.7,16.3,16,39.9,31.9,57.6,39.3a3.1,3.1,0,0,1,1.6,4A3.1,3.1,0,0,1,172.1,132.7ZM112.5,43.8a20.2,20.2,0,0,0-9.9,2.5,12,12,0,0,0-5.9,11.4c.3,7.2,6.1,16.3,14.7,25.5,9.3-8.1,17.1-17.4,17.5-25.6a12,12,0,0,0-6.1-11.1A20.3,20.3,0,0,0,112.5,43.8Z" fill="#707070"/><path d="M232,172.2,209.3,131a3,3,0,0,0-4.1-1.1l-52.7,28.7a2.8,2.8,0,0,0-1.3,3.8L164.4,193c3.6,9,9.2,14,15.9,14a10,10,0,0,0,5.8-1.5,28.4,28.4,0,0,0,52-15.7A28.5,28.5,0,0,0,232,172.2Zm-22.3,40a22.3,22.3,0,0,1-19.1-10.8c5.6-8.4-3.1-20.7-3.5-21.3a3.1,3.1,0,0,0-4.2-.7,3,3,0,0,0-.7,4.2c.1.1,7.2,10.6,2.7,15.2h0c-1.9,1.6-2.7,2.1-4.6,2.1-5.5,0-8.8-6.4-10.4-10.3l-12.1-28.1,47.7-26,21.3,38.7.3.4a22.4,22.4,0,0,1-17.4,36.5Z" fill="#707070"/><path d="M149.5,155.2a2.9,2.9,0,0,1-2.6-1.6,3,3,0,0,1,1.2-4.1l52-27.9a3,3,0,0,1,4.1,1.2,3.1,3.1,0,0,1-1.2,4.1l-52.1,27.9A3.3,3.3,0,0,1,149.5,155.2Z" fill="#707070"/><path d="M103.5,132.7,50.8,104a3,3,0,0,0-4.1,1.2L24,146.3a28.1,28.1,0,0,0-6.1,17.6,28.4,28.4,0,0,0,28.4,28.4,28.1,28.1,0,0,0,23.6-12.6,10.8,10.8,0,0,0,5.8,1.5c6.7,0,12.3-5,15.9-14l13.2-30.7A2.9,2.9,0,0,0,103.5,132.7ZM86,164.9c-1.5,3.8-4.9,10.2-10.3,10.2-1.9,0-2.7-.4-4.6-2h0c-4.6-4.7,2.6-15.1,2.7-15.2a3,3,0,0,0-4.9-3.5c-.4.5-9.1,12.8-3.5,21.2a22.4,22.4,0,0,1-41.5-11.6,21.6,21.6,0,0,1,5-14l.3-.5,21.3-38.7,47.7,26Z" fill="#707070"/><path d="M106.5,129.3a2.3,2.3,0,0,1-1.4-.4L53,101a3,3,0,1,1,2.9-5.3l52,27.9a3,3,0,0,1,1.2,4.1A2.9,2.9,0,0,1,106.5,129.3Z" fill="#707070"/></svg>