<svg id="Layer_1" data-name="Layer 1" xmlns="http://www.w3.org/2000/svg" width="256" height="256" viewBox="0 0 256 256"><title>snow</title><path d="M193.9,85.2a45.1,45.1,0,0,0,2.6-15,43.3,43.3,0,0,0-82.4-18.6A34.3,34.3,0,0,0,59.5,79.2a34.7,34.7,0,0,0,.6,6.4,34.5,34.5,0,0,0-25.9,33.3c0,10.6,4.8,24.6,27.8,30.9h.6l3.3.2H189.1a32.5,32.5,0,0,0,32.7-31.9V118A34.4,34.4,0,0,0,193.9,85.2Zm-4.8,57.6H63.6c-14.9-4.1-22.2-11.9-22.2-23.8A27.3,27.3,0,0,1,65,92a3.5,3.5,0,0,0,3.1-3.5,5,5,0,0,0-.2-1.2,28.4,28.4,0,0,1-1.2-8.1,27,27,0,0,1,46.3-19,3.6,3.6,0,0,0,3.4,1,3.7,3.7,0,0,0,2.6-2.4,36.1,36.1,0,1,1,66.4,27.8,3.4,3.4,0,0,0,.1,3.4,3.3,3.3,0,0,0,2.9,1.8h1.8a27.2,27.2,0,0,1,24.4,26.2A25.3,25.3,0,0,1,189.1,142.8Z" fill="#2de1fc"/><path d="M80.7,190.7a11.5,11.5,0,1,1,11.4-11.4A11.5,11.5,0,0,1,80.7,190.7Zm0-16.7a5.3,5.3,0,0,0,0,10.6,5.3,5.3,0,0,0,0-10.6Z" fill="#707070"/><path d="M127.9,190.7a11.5,11.5,0,1,1,11.4-11.4A11.4,11.4,0,0,1,127.9,190.7Zm0-16.7a5.3,5.3,0,1,0,5.3,5.3A5.3,5.3,0,0,0,127.9,174Z" fill="#707070"/><path d="M173.9,190.7a11.5,11.5,0,0,1,0-22.9,11.5,11.5,0,1,1,0,22.9Zm0-16.7a5.3,5.3,0,0,0,0,10.6,5.3,5.3,0,0,0,0-10.6Z" fill="#707070"/><path d="M105.2,229.1a11.4,11.4,0,1,1,11.4-11.4A11.4,11.4,0,0,1,105.2,229.1Zm0-16.7a5.3,5.3,0,1,0,5.3,5.3A5.3,5.3,0,0,0,105.2,212.4Z" fill="#707070"/><path d="M152.4,229.1a11.4,11.4,0,1,1,11.5-11.4A11.4,11.4,0,0,1,152.4,229.1Zm0-16.7a5.3,5.3,0,0,0,0,10.6,5.3,5.3,0,0,0,0-10.6Z" fill="#707070"/></svg>