<svg id="Layer_1" data-name="Layer 1" xmlns="http://www.w3.org/2000/svg" width="256" height="256" viewBox="0 0 256 256"><title>sun</title><path d="M85.5,100.6a3.5,3.5,0,0,1-2.2-.8l-18.6-15a3.5,3.5,0,0,1-.5-5,3.6,3.6,0,0,1,5.1-.6l18.5,15a3.6,3.6,0,0,1-2.3,6.4Z" fill="#ffc33c"/><path d="M123.5,79.6a3.7,3.7,0,0,1-3.6-3.3l-2.4-22.1a3.6,3.6,0,0,1,7.2-.8l2.4,22.2a3.6,3.6,0,0,1-3.2,3.9Z" fill="#ffc33c"/><path d="M161.6,92.2a3.4,3.4,0,0,1-2.3-.8,3.6,3.6,0,0,1-.5-5.1l14.8-18.4a3.6,3.6,0,0,1,5.6,4.6L164.4,90.9A3.5,3.5,0,0,1,161.6,92.2Z" fill="#ffc33c"/><path d="M187.8,177.6a4,4,0,0,1-2.3-.8l-18.5-15a3.5,3.5,0,0,1-.6-5,3.6,3.6,0,0,1,5.1-.6l18.5,15a3.5,3.5,0,0,1,.6,5A3.7,3.7,0,0,1,187.8,177.6Z" fill="#ffc33c"/><path d="M133.6,205.8a3.6,3.6,0,0,1-3.5-3.3l-2.4-22.1a3.5,3.5,0,0,1,3.2-3.9,3.7,3.7,0,0,1,4,3.2l2.3,22.1a3.5,3.5,0,0,1-3.2,3.9Z" fill="#ffc33c"/><path d="M78.3,189.4a3.5,3.5,0,0,1-2.2-.8,3.6,3.6,0,0,1-.6-5.1l14.8-18.4a3.7,3.7,0,0,1,5.7,4.6L81.1,188.1A3.7,3.7,0,0,1,78.3,189.4Z" fill="#ffc33c"/><path d="M180.2,131.5a3.6,3.6,0,0,1-.4-7.2l20.3-2.2a3.6,3.6,0,0,1,4,3.2,3.6,3.6,0,0,1-3.2,4l-20.3,2.2Z" fill="#ffc33c"/><path d="M55.5,149.4a3.5,3.5,0,0,1-3.5-3,3.5,3.5,0,0,1,2.9-4.1l21.7-3.9a3.6,3.6,0,0,1,4.2,2.9,3.6,3.6,0,0,1-2.9,4.2l-21.8,3.9Z" fill="#ffc33c"/><path d="M128,166.6a38.2,38.2,0,1,1,38-42.3h0a38.3,38.3,0,0,1-8.3,28,37.3,37.3,0,0,1-25.6,14Zm.1-69.2-3.4.2a31,31,0,1,0,27.4,50.2,30.6,30.6,0,0,0,6.7-22.7h0a31.1,31.1,0,0,0-30.7-27.7Z" fill="#ffc33c"/></svg>