<svg id="Layer_1" data-name="Layer 1" xmlns="http://www.w3.org/2000/svg" width="256" height="256" viewBox="0 0 256 256"><title>thunder</title><path d="M149.1,175.4l-29.6,44.1a3.9,3.9,0,0,1-3,1.6,3.7,3.7,0,0,1-2-.7,3.6,3.6,0,0,1-1-5L139.4,177H109.9a3.7,3.7,0,0,1-3.2-1.9,3.6,3.6,0,0,1,.1-3.6l8.5-13.4,2.2-3.6,2.3-3.6,10.9-17.2a3.5,3.5,0,0,1,4.9-1.1,3.7,3.7,0,0,1,1.2,5L128.4,151l-2.3,3.6-2.3,3.6-7.4,11.7h29.7a3.5,3.5,0,0,1,3.2,1.9A3.5,3.5,0,0,1,149.1,175.4Z" fill="#707070"/><path d="M221.8,125.9v.2A31.8,31.8,0,0,1,190,158l-42.9.2a3.7,3.7,0,0,1,0-7.3h42.1A25.3,25.3,0,0,0,214.6,126a27.1,27.1,0,0,0-24.4-26.1h-1.9a3.3,3.3,0,0,1-2.9-1.8,3.7,3.7,0,0,1-.1-3.4A36.1,36.1,0,1,0,118.9,67a3.7,3.7,0,0,1-6,1.4A27,27,0,0,0,66.6,87.5a24.4,24.4,0,0,0,1.3,8,4.9,4.9,0,0,1,.1,1.2,3.6,3.6,0,0,1-3.1,3.6,27.2,27.2,0,0,0-23.5,26.9,18.4,18.4,0,0,0,.4,4.1,14.2,14.2,0,0,0,.4,2,2.2,2.2,0,0,0,.3,1l.3,1.1a10.1,10.1,0,0,0,.7,1.5,8,8,0,0,0,.8,1.6,9.1,9.1,0,0,0,1.1,1.6,7.9,7.9,0,0,0,1.2,1.5L48,143a8.6,8.6,0,0,0,1.4,1.3h.1l1.2.9,1.6,1,1.5.9H54a16.3,16.3,0,0,0,1.9.9l.3.2,2,.8.4.2,2.3.8,1.2.4h.2l1.3.4h45a3.7,3.7,0,0,1,3.5,2.6,3.4,3.4,0,0,1,.1,1,3.7,3.7,0,0,1-3,3.6H62.1c-23-6.3-27.9-20.2-27.9-30.9A34.4,34.4,0,0,1,60,93.9,34.4,34.4,0,0,1,93.6,53.1,33.9,33.9,0,0,1,114,59.8a43.2,43.2,0,0,1,82.4,18.3,45.2,45.2,0,0,1-2.6,15.1A34.3,34.3,0,0,1,221.8,125.9Z" fill="#2de1fc"/></svg>