<svg id="Layer_1" data-name="Layer 1" xmlns="http://www.w3.org/2000/svg" width="64" height="64" viewBox="0 0 64 64"><title>wearther-logo-64</title><path d="M49.1,30.4a1,1,0,0,1-1,.6H15.7a1.1,1.1,0,0,1-1.1-.6c0-.1-.1-.3.3-.5L31.1,17.5a1.2,1.2,0,0,1,1.6,0L48.9,29.9A.4.4,0,0,1,49.1,30.4Z" fill="#fff"/><path d="M32,0A32,32,0,1,0,64,32,32,32,0,0,0,32,0ZM17.6,51.9a.9.9,0,1,1-1.8,0v-4a.9.9,0,1,1,1.8,0Zm0-8.9a.9.9,0,0,1-1.8,0V39a1,1,0,0,1,.9-1,1,1,0,0,1,.9,1Zm7.6,12.3a1,1,0,0,1-.9,1,1.1,1.1,0,0,1-1-1v-4a1,1,0,0,1,1-.9.9.9,0,0,1,.9.9Zm0-8.9a1,1,0,0,1-.9,1,1.1,1.1,0,0,1-1-1v-4a1,1,0,0,1,1-.9.9.9,0,0,1,.9.9Zm7.6,5.5a.9.9,0,0,1-.9.9,1,1,0,0,1-1-.9v-4a1,1,0,0,1,1-.9.9.9,0,0,1,.9.9Zm0-8.9a.9.9,0,0,1-.9.9,1,1,0,0,1-1-.9V39a1.1,1.1,0,0,1,1-1,1,1,0,0,1,.9,1Zm7.6,12.3a1,1,0,0,1-.9,1,1.1,1.1,0,0,1-1-1v-4a1,1,0,0,1,1-.9.9.9,0,0,1,.9.9Zm0-8.9a1,1,0,0,1-.9,1,1.1,1.1,0,0,1-1-1v-4a1,1,0,0,1,1-.9.9.9,0,0,1,.9.9ZM48,51.9a.9.9,0,0,1-.9.9.9.9,0,0,1-1-.9v-4a.9.9,0,0,1,1-.9.9.9,0,0,1,.9.9ZM48,43a.9.9,0,0,1-.9.9.9.9,0,0,1-1-.9V39a1,1,0,0,1,1-1,1,1,0,0,1,.9,1Zm3.3-11.8a3.2,3.2,0,0,1-3.2,2.1H40.4v4.2a1,1,0,0,1-.9,1,1.1,1.1,0,0,1-1-1V33.3H25.2v4.2a1,1,0,0,1-.9,1,1.1,1.1,0,0,1-1-1v-4c0-.1.1-.1.1-.2H15.7a3.3,3.3,0,0,1-3.3-2.1A2.8,2.8,0,0,1,13.5,28L29.7,15.6l1-.5h-.1a.4.4,0,0,0,.1-.3,4,4,0,0,1,1.1-2.7A11.4,11.4,0,0,0,32.9,11a2.3,2.3,0,0,0,.4-2.8,2.4,2.4,0,0,0-2.4-1.1,2.3,2.3,0,0,0-1.9,2,1.3,1.3,0,0,1-.1.6,1,1,0,0,1-1.2.8,1.1,1.1,0,0,1-1.1-1,4.4,4.4,0,0,1,1.7-3.8,4.7,4.7,0,0,1,6.6.5,4.9,4.9,0,0,1-.1,6.4l-1.3,1.2c-.1.2-.3.4-.3.6s-.2.5-.1.7h0l1,.5L50.3,28A2.8,2.8,0,0,1,51.3,31.2Z" fill="#fff"/></svg>