<svg id="Layer_1" data-name="Layer 1" xmlns="http://www.w3.org/2000/svg" width="256" height="256" viewBox="0 0 256 256"><title>white-logo-icon</title><path d="M70.5,207.6a3.8,3.8,0,1,1-7.5,0V191.5a3.8,3.8,0,0,1,7.5,0Z" fill="#fff"/><path d="M70.5,172a3.8,3.8,0,0,1-7.5,0V155.9a3.8,3.8,0,1,1,7.5,0Z" fill="#fff"/><path d="M100.9,221.3a3.8,3.8,0,1,1-7.5,0V205.2a3.8,3.8,0,0,1,7.5,0Z" fill="#fff"/><path d="M100.9,185.7a3.8,3.8,0,0,1-7.5,0V169.5a3.8,3.8,0,0,1,7.5,0Z" fill="#fff"/><path d="M131.2,207.6a3.8,3.8,0,1,1-7.5,0V191.5a3.8,3.8,0,0,1,7.5,0Z" fill="#fff"/><path d="M131.2,172a3.8,3.8,0,0,1-7.5,0V155.9a3.8,3.8,0,1,1,7.5,0Z" fill="#fff"/><path d="M161.6,221.3a3.8,3.8,0,1,1-7.5,0V205.2a3.8,3.8,0,0,1,7.5,0Z" fill="#fff"/><path d="M161.6,185.7a3.8,3.8,0,0,1-7.5,0V169.5a3.8,3.8,0,0,1,7.5,0Z" fill="#fff"/><path d="M191.9,207.6a3.7,3.7,0,1,1-7.4,0V191.5a3.7,3.7,0,0,1,7.4,0Z" fill="#fff"/><path d="M191.9,172a3.7,3.7,0,0,1-7.4,0V155.9a3.7,3.7,0,1,1,7.4,0Z" fill="#fff"/><path d="M201.2,112.1,136.4,62.4a17.7,17.7,0,0,0-4.1-2.1h.2c-.4-.6-.3-1.4.2-2.7a5.9,5.9,0,0,1,1.4-2.3l4.9-5c6.6-7.2,6.8-18.5.4-25.3s-18.1-8.8-26.2-2.3A17.8,17.8,0,0,0,106.4,38a4.6,4.6,0,0,0,4.3,4.2,4.8,4.8,0,0,0,5-3.3,10,10,0,0,0,.4-2.4,9.1,9.1,0,0,1,7.5-8.2,9.4,9.4,0,0,1,9.7,4.6,9.3,9.3,0,0,1-1.6,10.9l-4.5,4.6a14.7,14.7,0,0,0-4.5,10.8,2,2,0,0,1-.2,1.1h.2a14.4,14.4,0,0,0-4.1,2.1L53.8,112.1a11.1,11.1,0,0,0-4.2,12.6c1.8,5.1,7,8.6,13,8.6H93.4V150a3.8,3.8,0,1,0,7.5,0V133.9a1.3,1.3,0,0,0-.1-.6h53.4a1.3,1.3,0,0,0-.1.6V150a3.8,3.8,0,1,0,7.5,0V133.9a1.3,1.3,0,0,0-.1-.6h30.8c6.1,0,11.3-3.5,13.1-8.6A11.2,11.2,0,0,0,201.2,112.1Zm-4.8,9.6c-.3,1-1.8,2.1-4.1,2.1H62.6c-2.3,0-3.7-1.1-4.1-2.1s-.3-1.2,1-2.2l64.8-49.6a4.9,4.9,0,0,1,3.2-1,5.1,5.1,0,0,1,3.2,1l64.8,49.6C196.8,120.5,196.6,121.3,196.4,121.7Z" fill="#fff"/></svg>