<svg id="Layer_1" data-name="Layer 1" xmlns="http://www.w3.org/2000/svg" width="256" height="256" viewBox="0 0 256 256"><title>white-logo-round</title><path d="M196.4,121.7c-.3,1-1.8,2.1-4.1,2.1H62.6c-2.3,0-3.7-1.1-4.1-2.1s-.3-1.2,1-2.2l64.8-49.6a4.9,4.9,0,0,1,3.2-1,5.1,5.1,0,0,1,3.2,1l64.8,49.6C196.8,120.5,196.5,121.3,196.4,121.7Z" fill="#fff"/><path d="M128,0A128,128,0,1,0,256,128,128,128,0,0,0,128,0ZM70.5,207.6a3.8,3.8,0,1,1-7.5,0V191.5a3.8,3.8,0,0,1,7.5,0Zm0-35.6a3.8,3.8,0,0,1-7.5,0V155.9a3.8,3.8,0,1,1,7.5,0Zm30.4,49.3a3.8,3.8,0,1,1-7.5,0V205.2a3.8,3.8,0,0,1,7.5,0Zm0-35.6a3.8,3.8,0,0,1-7.5,0V169.5a3.8,3.8,0,0,1,7.5,0Zm30.3,21.9a3.8,3.8,0,1,1-7.5,0V191.5a3.8,3.8,0,0,1,7.5,0Zm0-35.6a3.8,3.8,0,0,1-7.5,0V155.9a3.8,3.8,0,1,1,7.5,0Zm30.4,49.3a3.8,3.8,0,1,1-7.5,0V205.2a3.8,3.8,0,0,1,7.5,0Zm0-35.6a3.8,3.8,0,0,1-7.5,0V169.5a3.8,3.8,0,0,1,7.5,0Zm30.3,21.9a3.7,3.7,0,1,1-7.4,0V191.5a3.7,3.7,0,0,1,7.4,0Zm0-35.6a3.7,3.7,0,0,1-7.4,0V155.9a3.7,3.7,0,1,1,7.4,0Zm13.5-47.3c-1.8,5.1-7.1,8.6-13.1,8.6H161.5a1.3,1.3,0,0,1,.1.6V150a3.8,3.8,0,1,1-7.5,0V133.9a1.3,1.3,0,0,1,.1-.6H100.8a1.3,1.3,0,0,1,.1.6V150a3.8,3.8,0,1,1-7.5,0V133.9a1.3,1.3,0,0,1,.1-.6H62.6c-6,0-11.2-3.5-13-8.6a11.1,11.1,0,0,1,4.2-12.6l64.8-49.7a14.4,14.4,0,0,1,4.1-2.1h-.2a2,2,0,0,0,.2-1.1,14.7,14.7,0,0,1,4.5-10.8l4.5-4.6a9.3,9.3,0,0,0,1.6-10.9,9.4,9.4,0,0,0-9.7-4.6,9.1,9.1,0,0,0-7.5,8.2,10,10,0,0,1-.4,2.4,4.8,4.8,0,0,1-5,3.3,4.5,4.5,0,0,1-4.2-4.2c-.5-6.2,2-11.4,6.8-15.3,8-6.5,18.9-5.5,26.1,2.3s6.2,18.1-.4,25.3l-4.9,5a5.9,5.9,0,0,0-1.4,2.3c-.5,1.3-.6,2.1-.2,2.7h-.2a17.7,17.7,0,0,1,4.1,2.1l64.8,49.7A11.2,11.2,0,0,1,205.4,124.7Z" fill="#fff"/></svg>